<svg xmlns="http://www.w3.org/2000/svg" width="1200" height="675" viewBox="0 0 1200 675" role="img" aria-labelledby="title desc">
  <title id="title">AI Workflow Evaluator thumbnail</title>
  <desc id="desc">A dark evaluation operations console thumbnail with suite health, quality gates, and trace-level decisions.</desc>
  <rect width="1200" height="675" fill="#0d0f0c"/>
  <defs>
    <radialGradient id="halo" cx="84%" cy="4%" r="72%">
      <stop offset="0" stop-color="#d9ff8c" stop-opacity=".18"/>
      <stop offset=".55" stop-color="#0d0f0c" stop-opacity="0"/>
    </radialGradient>
    <pattern id="grid" width="28" height="28" patternUnits="userSpaceOnUse">
      <path d="M28 0H0v28" fill="none" stroke="#20251d" stroke-width="1"/>
    </pattern>
  </defs>
  <rect width="1200" height="675" fill="url(#halo)"/>
  <rect width="1200" height="675" fill="url(#grid)" opacity=".65"/>
  <g font-family="Avenir Next, Segoe UI, sans-serif">
    <circle cx="94" cy="70" r="25" fill="#d9ff8c"/>
    <text x="82" y="78" fill="#0d0f0c" font-size="16" font-weight="900">AE</text>
    <text x="132" y="66" fill="#fffaf0" font-size="20" font-weight="800">AI Workflow Evaluator</text>
    <text x="132" y="93" fill="#aaa89e" font-size="16">Quality gates for LLM outputs</text>
    <rect x="74" y="126" width="698" height="370" fill="#1b1f18" stroke="#30352c" stroke-width="2"/>
    <text x="114" y="184" fill="#d9ff8c" font-size="15" font-weight="900" letter-spacing="3">EVALUATION OPS CONSOLE</text>
    <text x="114" y="275" fill="#fffaf0" font-family="Georgia, serif" font-size="78" font-weight="700">Decide what ships</text>
    <text x="114" y="354" fill="#fffaf0" font-family="Georgia, serif" font-size="78" font-weight="700">before the model</text>
    <text x="114" y="433" fill="#fffaf0" font-family="Georgia, serif" font-size="78" font-weight="700">reaches users.</text>
    <rect x="794" y="126" width="332" height="370" fill="#1b1f18" stroke="#30352c" stroke-width="2"/>
    <text x="830" y="182" fill="#747168" font-size="14" font-weight="900" letter-spacing="2">SUITE HEALTH</text>
    <text x="928" y="230" fill="#d9ff8c" font-size="76" font-weight="900">85%</text>
    <rect x="830" y="332" width="260" height="16" fill="#0a0b09" stroke="#515a49"/>
    <rect x="834" y="336" width="216" height="8" fill="#d9ff8c"/>
    <rect x="74" y="520" width="1052" height="92" fill="#1b1f18" stroke="#30352c" stroke-width="2"/>
    <text x="108" y="556" fill="#d9ff8c" font-size="14" font-weight="900" letter-spacing="2">RUN REVIEW</text>
    <text x="108" y="590" fill="#fffaf0" font-size="34" font-weight="900">Trace-Level Decisions</text>
    <rect x="680" y="552" width="112" height="34" fill="#20251d"/>
    <rect x="808" y="552" width="112" height="34" fill="#20251d"/>
    <rect x="936" y="552" width="112" height="34" fill="#20251d"/>
    <text x="704" y="575" fill="#35d0b1" font-size="13" font-weight="900">Grounding</text>
    <text x="838" y="575" fill="#35d0b1" font-size="13" font-weight="900">Latency</text>
    <text x="966" y="575" fill="#35d0b1" font-size="13" font-weight="900">Review</text>
  </g>
</svg>
