<svg xmlns="http://www.w3.org/2000/svg" width="1200" height="675" viewBox="0 0 1200 675" role="img" aria-labelledby="title desc">
  <title id="title">AI Workflow Evaluator thumbnail</title>
  <desc id="desc">A dark enterprise evaluation workbench thumbnail with suite navigation, calibration, evaluator registry, and trace review cards.</desc>
  <defs>
    <radialGradient id="halo" cx="82%" cy="0%" r="72%">
      <stop offset="0" stop-color="#d9ff8c" stop-opacity=".16"/>
      <stop offset=".58" stop-color="#0d0f0c" stop-opacity="0"/>
    </radialGradient>
    <pattern id="grid" width="28" height="28" patternUnits="userSpaceOnUse">
      <path d="M28 0H0v28" fill="none" stroke="#20251d" stroke-width="1"/>
    </pattern>
  </defs>
  <rect width="1200" height="675" fill="#0d0f0c"/>
  <rect width="1200" height="675" fill="url(#halo)"/>
  <rect width="1200" height="675" fill="url(#grid)" opacity=".58"/>
  <g font-family="Avenir Next, Segoe UI, sans-serif">
    <rect x="38" y="38" width="232" height="599" fill="#141711" stroke="#30352c" stroke-width="2"/>
    <circle cx="76" cy="78" r="23" fill="#d9ff8c"/>
    <text x="64" y="86" fill="#0d0f0c" font-size="15" font-weight="900">AE</text>
    <text x="112" y="74" fill="#fffaf0" font-size="18" font-weight="900">AI Workflow</text>
    <text x="112" y="98" fill="#aaa89e" font-size="14">Eval workbench</text>
    <text x="62" y="148" fill="#77756c" font-size="12" font-weight="900" letter-spacing="2">SUITES</text>
    <rect x="62" y="170" width="184" height="58" fill="#20251d" stroke="#30352c"/>
    <text x="78" y="206" fill="#fffaf0" font-size="16" font-weight="900">Workflow Quality</text>
    <rect x="62" y="238" width="184" height="58" fill="#d9ff8c"/>
    <text x="78" y="262" fill="#0d0f0c" font-size="16" font-weight="900">Portfolio Grounding</text>
    <text x="78" y="284" fill="#0d0f0c" font-size="12">Repo summary claims</text>
    <rect x="290" y="38" width="872" height="126" fill="#1b1f18" stroke="#30352c" stroke-width="2"/>
    <text x="314" y="76" fill="#d9ff8c" font-size="13" font-weight="900" letter-spacing="3">EVALUATION RUN</text>
    <text x="314" y="126" fill="#fffaf0" font-family="Georgia, serif" font-size="50" font-weight="700">Portfolio repo summary grounding suite</text>
    <rect x="290" y="184" width="212" height="116" fill="#1b1f18" stroke="#30352c" stroke-width="2"/>
    <rect x="518" y="184" width="212" height="116" fill="#1b1f18" stroke="#30352c" stroke-width="2"/>
    <rect x="746" y="184" width="190" height="116" fill="#1b1f18" stroke="#30352c" stroke-width="2"/>
    <rect x="952" y="184" width="210" height="116" fill="#1b1f18" stroke="#30352c" stroke-width="2"/>
    <text x="312" y="218" fill="#77756c" font-size="12" font-weight="900" letter-spacing="2">RUN SCORE</text>
    <text x="312" y="268" fill="#d9ff8c" font-size="50" font-weight="900">88%</text>
    <text x="540" y="218" fill="#77756c" font-size="12" font-weight="900" letter-spacing="2">CALIBRATION</text>
    <text x="540" y="268" fill="#fffaf0" font-size="46" font-weight="900">100%</text>
    <text x="768" y="218" fill="#77756c" font-size="12" font-weight="900" letter-spacing="2">LATENCY</text>
    <text x="768" y="268" fill="#fffaf0" font-size="38" font-weight="900">1113ms</text>
    <text x="974" y="218" fill="#77756c" font-size="12" font-weight="900" letter-spacing="2">AVG COST</text>
    <text x="974" y="268" fill="#fffaf0" font-size="38" font-weight="900">$0.0103</text>
    <rect x="290" y="320" width="560" height="156" fill="#1b1f18" stroke="#30352c" stroke-width="2"/>
    <text x="314" y="360" fill="#d9ff8c" font-size="13" font-weight="900" letter-spacing="3">EVALUATOR REGISTRY</text>
    <text x="314" y="400" fill="#fffaf0" font-size="30" font-weight="900">What Gets Scored</text>
    <rect x="314" y="424" width="145" height="34" fill="#0d0f0c"/>
    <rect x="474" y="424" width="145" height="34" fill="#0d0f0c"/>
    <rect x="634" y="424" width="145" height="34" fill="#0d0f0c"/>
    <text x="330" y="447" fill="#fffaf0" font-size="14" font-weight="900">Accuracy</text>
    <text x="490" y="447" fill="#fffaf0" font-size="14" font-weight="900">Grounding</text>
    <text x="650" y="447" fill="#fffaf0" font-size="14" font-weight="900">Hallucination</text>
    <rect x="870" y="320" width="292" height="156" fill="#1b1f18" stroke="#30352c" stroke-width="2"/>
    <text x="894" y="360" fill="#77756c" font-size="13" font-weight="900" letter-spacing="3">SENSE CHECK</text>
    <text x="894" y="402" fill="#fffaf0" font-size="30" font-weight="900">Portfolio claim</text>
    <text x="894" y="438" fill="#fffaf0" font-size="30" font-weight="900">grounding</text>
    <rect x="290" y="496" width="872" height="141" fill="#1b1f18" stroke="#30352c" stroke-width="2"/>
    <text x="314" y="535" fill="#d9ff8c" font-size="13" font-weight="900" letter-spacing="3">TRACE REVIEW</text>
    <text x="314" y="574" fill="#fffaf0" font-size="30" font-weight="900">Outputs, Scores, and Evidence</text>
    <rect x="314" y="598" width="220" height="28" fill="#20251d"/>
    <rect x="548" y="598" width="130" height="28" fill="#20251d"/>
    <rect x="692" y="598" width="130" height="28" fill="#20251d"/>
    <rect x="836" y="598" width="130" height="28" fill="#20251d"/>
    <rect x="980" y="598" width="130" height="28" fill="#0b0d0a"/>
    <text x="330" y="618" fill="#fffaf0" font-size="13" font-weight="900">Recommendation overclaim</text>
    <text x="560" y="618" fill="#35d0b1" font-size="13" font-weight="900">Accuracy 75%</text>
    <text x="704" y="618" fill="#35d0b1" font-size="13" font-weight="900">Grounding 50%</text>
    <text x="850" y="618" fill="#ff6b5a" font-size="13" font-weight="900">Blocked</text>
  </g>
</svg>
