<svg xmlns="http://www.w3.org/2000/svg" viewBox="0 0 1200 675" role="img" aria-labelledby="title desc">
  <title id="title">Archive utilities thumbnail</title>
  <desc id="desc">A standardised archive thumbnail for earlier newsletter and scraper automation utilities.</desc>
  <rect width="1200" height="675" fill="#fbfaf7"/>
  <rect x="44" y="42" width="1112" height="591" fill="#ffffff" stroke="#a9a195" stroke-width="2"/>
  <rect x="44" y="42" width="1112" height="74" fill="#151515"/>
  <circle cx="82" cy="79" r="8" fill="#9f3a2f"/>
  <circle cx="110" cy="79" r="8" fill="#8f5d12"/>
  <circle cx="138" cy="79" r="8" fill="#0f766e"/>
  <text x="184" y="88" fill="#ffffff" font-family="Avenir Next, Segoe UI, Arial, sans-serif" font-size="30" font-weight="800">Archive Utilities</text>
  <text x="922" y="84" fill="#d8d2c8" font-family="Avenir Next, Segoe UI, Arial, sans-serif" font-size="17" font-weight="800" letter-spacing="2">EARLIER AUTOMATION</text>
  <rect x="92" y="162" width="450" height="342" fill="#f4f0e9" stroke="#d8d2c8"/>
  <rect x="122" y="198" width="390" height="46" fill="#151515"/>
  <text x="146" y="229" fill="#ffffff" font-family="Avenir Next, Segoe UI, Arial, sans-serif" font-size="20" font-weight="850">Newsletter rendering</text>
  <rect x="122" y="276" width="330" height="18" fill="#0f766e"/>
  <rect x="122" y="314" width="270" height="18" fill="#8f5d12"/>
  <rect x="122" y="352" width="360" height="18" fill="#1d4f91"/>
  <rect x="122" y="414" width="160" height="38" fill="#ffffff" stroke="#a9a195"/>
  <text x="146" y="440" fill="#151515" font-family="Avenir Next, Segoe UI, Arial, sans-serif" font-size="16" font-weight="800">HTML output</text>
  <rect x="658" y="162" width="450" height="342" fill="#ffffff" stroke="#d8d2c8"/>
  <text x="690" y="212" fill="#57534e" font-family="Avenir Next, Segoe UI, Arial, sans-serif" font-size="16" font-weight="900" letter-spacing="1.5">IMAGE COLLECTION</text>
  <g fill="#f4f0e9" stroke="#a9a195">
    <rect x="690" y="246" width="112" height="92"/>
    <rect x="826" y="246" width="112" height="92"/>
    <rect x="962" y="246" width="112" height="92"/>
    <rect x="690" y="366" width="112" height="92"/>
    <rect x="826" y="366" width="112" height="92"/>
    <rect x="962" y="366" width="112" height="92"/>
  </g>
  <path d="M708 316 L746 278 L786 316 Z" fill="#0f766e"/>
  <path d="M844 316 L882 276 L922 316 Z" fill="#1d4f91"/>
  <path d="M980 316 L1018 278 L1058 316 Z" fill="#8f5d12"/>
  <path d="M708 436 L748 398 L786 436 Z" fill="#9f3a2f"/>
  <path d="M844 436 L882 398 L922 436 Z" fill="#0f766e"/>
  <path d="M980 436 L1018 398 L1058 436 Z" fill="#1d4f91"/>
  <text x="92" y="564" fill="#151515" font-family="Charter, Georgia, serif" font-size="42" font-weight="700">Kept for provenance, not as flagship work.</text>
</svg>
