<svg xmlns="http://www.w3.org/2000/svg" width="1200" height="675" viewBox="0 0 1200 675" role="img" aria-labelledby="title desc">
  <title id="title">Architexa product thumbnail</title>
  <desc id="desc">A generative architecture product tile showing input labels, generated facade samples, and an API panel.</desc>
  <rect width="1200" height="675" fill="#fbfaf7"/>
  <rect x="54" y="52" width="1092" height="571" fill="#ffffff" stroke="#151515" stroke-width="3"/>
  <rect x="54" y="52" width="1092" height="72" fill="#151515"/>
  <text x="94" y="96" font-family="Avenir Next, Segoe UI, Arial, sans-serif" font-size="28" font-weight="850" fill="#ffffff">Architexa</text>
  <text x="930" y="95" font-family="Avenir Next, Segoe UI, Arial, sans-serif" font-size="18" font-weight="850" fill="#7dd3c7">GAN + API</text>

  <rect x="94" y="160" width="254" height="398" fill="#f4f0e9" stroke="#d8d2c8" stroke-width="2"/>
  <text x="122" y="204" font-family="Avenir Next, Segoe UI, Arial, sans-serif" font-size="17" font-weight="900" fill="#064e3b">CONDITION</text>
  <rect x="122" y="234" width="178" height="38" fill="#151515"/>
  <rect x="122" y="292" width="118" height="38" fill="#0f766e"/>
  <rect x="122" y="350" width="152" height="38" fill="#8f5d12"/>
  <text x="122" y="466" font-family="Charter, Georgia, serif" font-size="42" font-weight="700" fill="#151515">Dataset</text>
  <text x="122" y="504" font-family="Avenir Next, Segoe UI, Arial, sans-serif" font-size="20" font-weight="700" fill="#57534e">labels into generated architecture forms</text>

  <rect x="380" y="160" width="420" height="398" fill="#151515"/>
  <g stroke="#ffffff" stroke-width="3" fill="none">
    <rect x="426" y="214" width="132" height="132"/>
    <rect x="606" y="214" width="132" height="132"/>
    <rect x="426" y="388" width="132" height="118"/>
    <rect x="606" y="388" width="132" height="118"/>
  </g>
  <g fill="#7dd3c7">
    <rect x="456" y="248" width="72" height="98"/>
    <rect x="628" y="242" width="88" height="18"/>
    <rect x="628" y="278" width="88" height="18"/>
    <rect x="628" y="314" width="88" height="18"/>
    <polygon points="444,506 492,404 540,506"/>
    <rect x="632" y="416" width="24" height="90"/>
    <rect x="676" y="416" width="24" height="90"/>
  </g>
  <text x="426" y="543" font-family="Avenir Next, Segoe UI, Arial, sans-serif" font-size="17" font-weight="850" fill="#ffffff">generated samples</text>

  <rect x="832" y="160" width="272" height="398" fill="#ffffff" stroke="#d8d2c8" stroke-width="2"/>
  <text x="862" y="204" font-family="Avenir Next, Segoe UI, Arial, sans-serif" font-size="17" font-weight="900" fill="#064e3b">MODEL SERVICE</text>
  <rect x="862" y="240" width="202" height="46" fill="#151515"/>
  <rect x="862" y="316" width="172" height="14" fill="#d8d2c8"/>
  <rect x="862" y="350" width="132" height="14" fill="#d8d2c8"/>
  <rect x="862" y="384" width="190" height="14" fill="#d8d2c8"/>
  <path d="M872 480h172" stroke="#0f766e" stroke-width="7"/>
  <path d="M872 512h126" stroke="#8f5d12" stroke-width="7"/>
  <text x="886" y="270" font-family="Avenir Next, Segoe UI, Arial, sans-serif" font-size="20" font-weight="850" fill="#ffffff">Flask API</text>
</svg>
