<svg width="1200" height="680" viewBox="0 0 1200 680" fill="none" xmlns="http://www.w3.org/2000/svg" role="img" aria-labelledby="title desc">
  <title id="title">Architexa model pipeline thumbnail</title>
  <desc id="desc">A thumbnail showing an architecture image dataset, conditional GAN training, generated previews, and a Flask API.</desc>
  <rect width="1200" height="680" fill="#151515"/>
  <path d="M0 85H1200M0 170H1200M0 255H1200M0 340H1200M0 425H1200M0 510H1200M0 595H1200" stroke="#FFFFFF" stroke-opacity="0.07"/>
  <text x="78" y="112" font-family="Arial, Helvetica, sans-serif" font-size="18" font-weight="900" letter-spacing="5" fill="#D9A441">ARCHITEXA</text>
  <text x="78" y="172" font-family="Georgia, serif" font-size="50" font-weight="700" fill="#FFFFFF">Architecture image generation</text>
  <text x="80" y="214" font-family="Arial, Helvetica, sans-serif" font-size="22" font-weight="800" fill="#D8D2C8">Dataset pipeline · conditional GAN · Flask API</text>

  <g font-family="Arial, Helvetica, sans-serif">
    <rect x="80" y="290" width="250" height="174" fill="#F4F0E9" stroke="#FFFFFF" stroke-width="3"/>
    <rect x="106" y="318" width="198" height="96" fill="#FFFFFF" stroke="#151515" stroke-width="2"/>
    <path d="M126 392L170 344L212 378L246 336L286 392H126Z" fill="#0F766E"/>
    <text x="106" y="436" font-size="20" font-weight="900" fill="#151515">Curated dataset</text>

    <rect x="430" y="270" width="250" height="214" fill="#0F766E" stroke="#FFFFFF" stroke-width="3"/>
    <circle cx="520" cy="374" r="44" fill="#151515" fill-opacity="0.28"/>
    <circle cx="590" cy="374" r="44" fill="#151515" fill-opacity="0.28"/>
    <path d="M496 374H614" stroke="#FFFFFF" stroke-width="6"/>
    <text x="478" y="448" font-size="28" font-weight="900" fill="#FFFFFF">Conditional GAN</text>

    <rect x="780" y="290" width="144" height="144" fill="#FFFFFF" stroke="#D9A441" stroke-width="3"/>
    <path d="M806 402L852 338L902 402H806Z" fill="#1D4F91"/>
    <rect x="946" y="290" width="144" height="144" fill="#FFFFFF" stroke="#D9A441" stroke-width="3"/>
    <path d="M972 402L1016 348L1068 402H972Z" fill="#9F3A2F"/>
    <rect x="780" y="462" width="310" height="46" fill="#D9A441"/>
    <text x="814" y="493" font-size="20" font-weight="900" fill="#151515">Generated previews</text>
  </g>

  <path d="M342 377H420M692 377H772" stroke="#FFFFFF" stroke-width="6"/>
  <path d="M420 377L404 363M420 377L404 391M772 377L756 363M772 377L756 391" stroke="#FFFFFF" stroke-width="6" stroke-linecap="round"/>

  <rect x="80" y="558" width="1010" height="52" fill="#FFFFFF"/>
  <text x="112" y="592" font-family="Arial, Helvetica, sans-serif" font-size="22" font-weight="900" fill="#151515">TensorFlow · Keras · Flask · image pipeline</text>
</svg>
