<svg xmlns="http://www.w3.org/2000/svg" width="1200" height="630" viewBox="0 0 1200 630">
  <rect width="1200" height="630" fill="#f4f0e6"/>
  <path d="M0 90h1200M0 180h1200M0 270h1200M0 360h1200M0 450h1200M0 540h1200" stroke="#1746a2" opacity=".08"/>
  <path d="M90 0v630M180 0v630M270 0v630M360 0v630M450 0v630M540 0v630M630 0v630M720 0v630M810 0v630M900 0v630M990 0v630M1080 0v630" stroke="#1746a2" opacity=".08"/>
  <rect x="78" y="72" width="72" height="72" fill="#1746a2"/>
  <text x="114" y="118" text-anchor="middle" fill="white" font-family="Arial" font-weight="800" font-size="20">MP</text>
  <text x="176" y="112" fill="#171714" font-family="Georgia" font-size="42">MeetingProof</text>
  <text x="78" y="260" fill="#171714" font-family="Georgia" font-size="82">Make the follow-up</text>
  <text x="78" y="352" fill="#1746a2" font-family="Georgia" font-style="italic" font-size="92">defensible.</text>
  <rect x="76" y="382" width="420" height="15" fill="#f4d35e"/>
  <text x="78" y="468" fill="#625f57" font-family="Arial" font-size="30">Decisions. Actions. Questions. Exact source lines.</text>
  <rect x="830" y="100" width="280" height="390" fill="#fffdf7" stroke="#171714" stroke-width="3"/>
  <rect x="858" y="144" width="150" height="13" fill="#1746a2"/>
  <rect x="858" y="184" width="212" height="19" fill="#171714"/>
  <rect x="858" y="216" width="180" height="13" fill="#171714" opacity=".45"/>
  <rect x="858" y="255" width="225" height="2" fill="#bbb3a4"/>
  <rect x="858" y="290" width="116" height="13" fill="#e85d2a"/>
  <rect x="858" y="332" width="205" height="19" fill="#171714"/>
  <rect x="858" y="365" width="168" height="13" fill="#171714" opacity=".45"/>
  <rect x="842" y="504" width="284" height="44" fill="#1746a2"/>
  <text x="984" y="533" text-anchor="middle" fill="white" font-family="Arial" font-weight="800" font-size="18">HUMAN REVIEW REQUIRED</text>
</svg>
