<svg xmlns="http://www.w3.org/2000/svg" viewBox="0 0 1200 675" role="img" aria-labelledby="title desc">
  <title id="title">ProjectLens schedule risk thumbnail</title>
  <desc id="desc">A standardised product thumbnail showing schedule risk, milestone pressure, and project health panels.</desc>
  <rect width="1200" height="675" fill="#fbfaf7"/>
  <rect x="44" y="42" width="1112" height="591" rx="0" fill="#ffffff" stroke="#a9a195" stroke-width="2"/>
  <rect x="44" y="42" width="1112" height="74" fill="#151515"/>
  <circle cx="82" cy="79" r="8" fill="#9f3a2f"/>
  <circle cx="110" cy="79" r="8" fill="#8f5d12"/>
  <circle cx="138" cy="79" r="8" fill="#0f766e"/>
  <text x="184" y="88" fill="#ffffff" font-family="Avenir Next, Segoe UI, Arial, sans-serif" font-size="30" font-weight="800">ProjectLens</text>
  <text x="972" y="84" fill="#d8d2c8" font-family="Avenir Next, Segoe UI, Arial, sans-serif" font-size="17" font-weight="800" letter-spacing="2">SCHEDULE RISK</text>

  <rect x="82" y="156" width="292" height="156" fill="#f4f0e9" stroke="#d8d2c8"/>
  <text x="108" y="195" fill="#57534e" font-family="Avenir Next, Segoe UI, Arial, sans-serif" font-size="16" font-weight="800" letter-spacing="1.4">PROJECT HEALTH</text>
  <text x="108" y="258" fill="#151515" font-family="Charter, Georgia, serif" font-size="64" font-weight="700">5.53</text>
  <text x="239" y="254" fill="#9f3a2f" font-family="Avenir Next, Segoe UI, Arial, sans-serif" font-size="18" font-weight="900">RISK</text>
  <rect x="108" y="278" width="218" height="8" fill="#d8d2c8"/>
  <rect x="108" y="278" width="136" height="8" fill="#9f3a2f"/>

  <rect x="414" y="156" width="322" height="156" fill="#ffffff" stroke="#d8d2c8"/>
  <text x="440" y="195" fill="#57534e" font-family="Avenir Next, Segoe UI, Arial, sans-serif" font-size="16" font-weight="800" letter-spacing="1.4">TOP CRITICAL TASKS</text>
  <g fill="#151515" font-family="Avenir Next, Segoe UI, Arial, sans-serif" font-size="18" font-weight="760">
    <text x="440" y="235">Updates</text>
    <text x="440" y="270">Delta</text>
    <text x="440" y="305">Gamma</text>
  </g>
  <g fill="#57534e" font-family="Avenir Next, Segoe UI, Arial, sans-serif" font-size="17" font-weight="700">
    <text x="642" y="235">61 days</text>
    <text x="642" y="270">57 days</text>
    <text x="642" y="305">49 days</text>
  </g>
  <circle cx="620" cy="229" r="8" fill="#9f3a2f"/>
  <circle cx="620" cy="264" r="8" fill="#9f3a2f"/>
  <circle cx="620" cy="299" r="8" fill="#8f5d12"/>

  <rect x="776" y="156" width="342" height="384" fill="#ffffff" stroke="#d8d2c8"/>
  <text x="802" y="195" fill="#57534e" font-family="Avenir Next, Segoe UI, Arial, sans-serif" font-size="16" font-weight="800" letter-spacing="1.4">RISK STATUS BY PROJECT</text>
  <line x1="820" y1="482" x2="1082" y2="482" stroke="#d8d2c8"/>
  <g>
    <rect x="838" y="350" width="28" height="132" fill="#9f3a2f"/>
    <rect x="866" y="292" width="28" height="190" fill="#0f766e"/>
    <rect x="894" y="260" width="28" height="222" fill="#8f5d12"/>
    <rect x="954" y="382" width="28" height="100" fill="#9f3a2f"/>
    <rect x="982" y="330" width="28" height="152" fill="#0f766e"/>
    <rect x="1010" y="300" width="28" height="182" fill="#8f5d12"/>
  </g>
  <text x="824" y="516" fill="#69625b" font-family="Avenir Next, Segoe UI, Arial, sans-serif" font-size="15" font-weight="700">Slippages</text>
  <text x="950" y="516" fill="#69625b" font-family="Avenir Next, Segoe UI, Arial, sans-serif" font-size="15" font-weight="700">Updates</text>

  <rect x="82" y="354" width="654" height="186" fill="#ffffff" stroke="#d8d2c8"/>
  <text x="108" y="394" fill="#57534e" font-family="Avenir Next, Segoe UI, Arial, sans-serif" font-size="16" font-weight="800" letter-spacing="1.4">MILESTONE PRESSURE</text>
  <path d="M116 486 C196 448 240 470 314 424 S456 390 520 438 S622 506 704 428" fill="none" stroke="#1d4f91" stroke-width="8"/>
  <path d="M116 508 C196 470 250 504 326 462 S450 446 530 486 S636 540 704 482" fill="none" stroke="#0f766e" stroke-width="8"/>
  <g fill="#151515" font-family="Avenir Next, Segoe UI, Arial, sans-serif" font-size="15" font-weight="800">
    <text x="108" y="434">Forecast confidence</text>
    <text x="108" y="462">Delay trend</text>
  </g>
  <circle cx="92" cy="428" r="6" fill="#1d4f91"/>
  <circle cx="92" cy="456" r="6" fill="#0f766e"/>
</svg>
