<svg width="1200" height="680" viewBox="0 0 1200 680" fill="none" xmlns="http://www.w3.org/2000/svg" role="img" aria-labelledby="title desc">
  <title id="title">QuickSupply workflow thumbnail</title>
  <desc id="desc">A portfolio thumbnail showing school, teacher, and agency portals connected to a sequential assignment queue.</desc>
  <rect width="1200" height="680" fill="#F4F0E9"/>
  <rect x="58" y="54" width="1084" height="572" fill="#FFFFFF" stroke="#151515" stroke-width="4"/>
  <text x="90" y="118" font-family="Arial, Helvetica, sans-serif" font-size="18" font-weight="900" letter-spacing="5" fill="#0F766E">QUICKSUPPLY</text>
  <text x="90" y="184" font-family="Georgia, serif" font-size="60" font-weight="700" fill="#151515">Cover requests routed in order</text>
  <text x="92" y="226" font-family="Arial, Helvetica, sans-serif" font-size="22" font-weight="700" fill="#57534E">School portal, teacher availability, agency dashboard, and live assignment status.</text>
  <g font-family="Arial, Helvetica, sans-serif">
    <rect x="90" y="304" width="250" height="168" fill="#FFFFFF" stroke="#151515" stroke-width="3"/>
    <rect x="112" y="328" width="58" height="58" fill="#0F766E"/>
    <text x="192" y="350" font-size="25" font-weight="900" fill="#151515">School</text>
    <text x="192" y="386" font-size="18" font-weight="800" fill="#57534E">cover request</text>
    <text x="112" y="434" font-size="16" font-weight="800" fill="#69625B">Submit · track · approve</text>
    <rect x="476" y="276" width="250" height="224" fill="#151515" stroke="#8F5D12" stroke-width="3"/>
    <text x="506" y="342" font-size="28" font-weight="900" fill="#FFFFFF">Assignment queue</text>
    <text x="506" y="388" font-size="18" font-weight="800" fill="#D8D2C8">1. Available teacher</text>
    <text x="506" y="424" font-size="18" font-weight="800" fill="#D8D2C8">2. Sequential offer</text>
    <text x="506" y="460" font-size="18" font-weight="800" fill="#D8D2C8">3. SSE status update</text>
    <rect x="860" y="304" width="250" height="168" fill="#FFFFFF" stroke="#151515" stroke-width="3"/>
    <rect x="882" y="328" width="58" height="58" fill="#1D4F91"/>
    <text x="962" y="350" font-size="25" font-weight="900" fill="#151515">Agency</text>
    <text x="962" y="386" font-size="18" font-weight="800" fill="#57534E">operations view</text>
    <text x="882" y="434" font-size="16" font-weight="800" fill="#69625B">Assign · oversee · report</text>
  </g>
  <path d="M348 388H468M734 388H852" stroke="#151515" stroke-width="6"/>
  <path d="M468 388L452 374M468 388L452 402M852 388L836 374M852 388L836 402" stroke="#151515" stroke-width="6" stroke-linecap="round"/>
  <rect x="90" y="542" width="1020" height="44" fill="#FBFAF7" stroke="#D8D2C8" stroke-width="2"/>
  <rect x="90" y="542" width="650" height="44" fill="#0F766E"/>
  <text x="112" y="571" font-family="Arial, Helvetica, sans-serif" font-size="18" font-weight="900" fill="#FFFFFF">Live status: request accepted · teacher notified · agency dashboard updated</text>
</svg>
