<svg xmlns="http://www.w3.org/2000/svg" width="1200" height="675" viewBox="0 0 1200 675" role="img" aria-labelledby="title desc">
  <title id="title">Dating app recommender product thumbnail</title>
  <desc id="desc">A recommender system thumbnail showing candidate ranking, temporal holdout, and top-k evaluation.</desc>
  <rect width="1200" height="675" fill="#fbfaf7"/>
  <rect x="54" y="52" width="1092" height="571" fill="#ffffff" stroke="#151515" stroke-width="3"/>
  <rect x="54" y="52" width="1092" height="72" fill="#151515"/>
  <text x="94" y="96" font-family="Avenir Next, Segoe UI, Arial, sans-serif" font-size="28" font-weight="850" fill="#ffffff">Dating App Recommendation System</text>
  <text x="894" y="95" font-family="Avenir Next, Segoe UI, Arial, sans-serif" font-size="18" font-weight="850" fill="#7dd3c7">RANKING EVALUATION</text>

  <rect x="94" y="166" width="312" height="392" fill="#151515"/>
  <text x="126" y="210" font-family="Avenir Next, Segoe UI, Arial, sans-serif" font-size="17" font-weight="900" fill="#7dd3c7">CANDIDATES</text>
  <g fill="#ffffff" stroke="#ffffff" stroke-width="2">
    <circle cx="156" cy="278" r="36"/>
    <circle cx="156" cy="372" r="36"/>
    <circle cx="156" cy="466" r="36"/>
  </g>
  <g fill="#7dd3c7">
    <rect x="216" y="252" width="128" height="14"/>
    <rect x="216" y="282" width="94" height="14"/>
    <rect x="216" y="346" width="144" height="14"/>
    <rect x="216" y="376" width="84" height="14"/>
    <rect x="216" y="440" width="112" height="14"/>
    <rect x="216" y="470" width="132" height="14"/>
  </g>

  <rect x="438" y="166" width="314" height="392" fill="#f4f0e9" stroke="#d8d2c8" stroke-width="2"/>
  <text x="468" y="210" font-family="Avenir Next, Segoe UI, Arial, sans-serif" font-size="17" font-weight="900" fill="#064e3b">TEMPORAL HOLDOUT</text>
  <line x1="490" y1="320" x2="700" y2="320" stroke="#151515" stroke-width="5"/>
  <circle cx="510" cy="320" r="14" fill="#0f766e"/>
  <circle cx="570" cy="320" r="14" fill="#0f766e"/>
  <circle cx="630" cy="320" r="14" fill="#8f5d12"/>
  <circle cx="690" cy="320" r="14" fill="#9f3a2f"/>
  <text x="492" y="386" font-family="Charter, Georgia, serif" font-size="56" font-weight="700" fill="#151515">Top-K</text>
  <text x="492" y="428" font-family="Avenir Next, Segoe UI, Arial, sans-serif" font-size="20" font-weight="750" fill="#57534e">ranking metrics over time</text>

  <rect x="784" y="166" width="320" height="392" fill="#ffffff" stroke="#d8d2c8" stroke-width="2"/>
  <text x="814" y="210" font-family="Avenir Next, Segoe UI, Arial, sans-serif" font-size="17" font-weight="900" fill="#064e3b">EVALUATION</text>
  <rect x="822" y="250" width="42" height="236" fill="#0f766e"/>
  <rect x="894" y="296" width="42" height="190" fill="#8f5d12"/>
  <rect x="966" y="222" width="42" height="264" fill="#151515"/>
  <line x1="812" y1="486" x2="1052" y2="486" stroke="#151515" stroke-width="4"/>
  <rect x="814" y="520" width="194" height="12" fill="#d8d2c8"/>
  <rect x="814" y="544" width="132" height="12" fill="#d8d2c8"/>
</svg>
