<svg xmlns="http://www.w3.org/2000/svg" width="1200" height="675" viewBox="0 0 1200 675" role="img" aria-labelledby="title desc">
  <title id="title">Sentence Similarity product thumbnail</title>
  <desc id="desc">An NLP notebook thumbnail showing source sentences, embedding vectors, and ranked retrieval matches.</desc>
  <rect width="1200" height="675" fill="#fbfaf7"/>
  <rect x="54" y="52" width="1092" height="571" fill="#ffffff" stroke="#151515" stroke-width="3"/>
  <rect x="54" y="52" width="1092" height="72" fill="#151515"/>
  <text x="94" y="96" font-family="Avenir Next, Segoe UI, Arial, sans-serif" font-size="28" font-weight="850" fill="#ffffff">Sentence Similarity Analysis</text>
  <text x="910" y="95" font-family="Avenir Next, Segoe UI, Arial, sans-serif" font-size="18" font-weight="850" fill="#7dd3c7">EMBEDDINGS</text>

  <rect x="94" y="166" width="320" height="392" fill="#ffffff" stroke="#d8d2c8" stroke-width="2"/>
  <text x="124" y="210" font-family="Avenir Next, Segoe UI, Arial, sans-serif" font-size="17" font-weight="900" fill="#064e3b">INPUT TEXT</text>
  <rect x="124" y="248" width="230" height="14" fill="#151515"/>
  <rect x="124" y="282" width="172" height="14" fill="#d8d2c8"/>
  <rect x="124" y="338" width="248" height="14" fill="#151515"/>
  <rect x="124" y="372" width="204" height="14" fill="#d8d2c8"/>
  <rect x="124" y="428" width="214" height="14" fill="#151515"/>
  <rect x="124" y="462" width="156" height="14" fill="#d8d2c8"/>

  <rect x="446" y="166" width="306" height="392" fill="#151515"/>
  <text x="476" y="210" font-family="Avenir Next, Segoe UI, Arial, sans-serif" font-size="17" font-weight="900" fill="#7dd3c7">VECTOR SPACE</text>
  <g stroke="#7dd3c7" stroke-width="4">
    <line x1="516" y1="456" x2="676" y2="260"/>
    <line x1="516" y1="456" x2="604" y2="318"/>
    <line x1="516" y1="456" x2="660" y2="394"/>
  </g>
  <g fill="#ffffff">
    <circle cx="676" cy="260" r="14"/>
    <circle cx="604" cy="318" r="14"/>
    <circle cx="660" cy="394" r="14"/>
    <circle cx="516" cy="456" r="18"/>
  </g>
  <text x="476" y="522" font-family="Avenir Next, Segoe UI, Arial, sans-serif" font-size="20" font-weight="750" fill="#ffffff">cosine ranking, not truth</text>

  <rect x="784" y="166" width="320" height="392" fill="#f4f0e9" stroke="#d8d2c8" stroke-width="2"/>
  <text x="814" y="210" font-family="Avenir Next, Segoe UI, Arial, sans-serif" font-size="17" font-weight="900" fill="#064e3b">RANKED MATCHES</text>
  <g font-family="Avenir Next, Segoe UI, Arial, sans-serif" font-weight="850">
    <text x="814" y="272" font-size="38" fill="#151515">0.92</text>
    <text x="814" y="356" font-size="38" fill="#151515">0.78</text>
    <text x="814" y="440" font-size="38" fill="#151515">0.61</text>
  </g>
  <rect x="920" y="244" width="132" height="14" fill="#0f766e"/>
  <rect x="920" y="274" width="98" height="14" fill="#d8d2c8"/>
  <rect x="920" y="328" width="156" height="14" fill="#8f5d12"/>
  <rect x="920" y="358" width="86" height="14" fill="#d8d2c8"/>
  <rect x="920" y="412" width="112" height="14" fill="#9f3a2f"/>
  <rect x="920" y="442" width="136" height="14" fill="#d8d2c8"/>
</svg>
